<svg width="48" height="48" viewBox="0 0 48 48" fill="none" xmlns="http://www.w3.org/2000/svg">
<path d="M23.9996 23.6999C28.3627 23.6999 31.8996 20.163 31.8996 15.7999C31.8996 11.4369 28.3627 7.8999 23.9996 7.8999C19.6366 7.8999 16.0996 11.4369 16.0996 15.7999C16.0996 20.163 19.6366 23.6999 23.9996 23.6999Z" fill="#1C83E5"/>
<path d="M29.9992 27.9001H17.9992C15.0992 27.9001 12.6992 30.3001 12.6992 33.2001V45.7001C16.1992 46.8001 19.9992 47.3001 23.9992 47.3001C27.9992 47.3001 31.7992 46.7001 35.2992 45.7001V33.2001C35.2992 30.3001 32.8992 27.9001 29.9992 27.9001ZM36.1992 0.600098C32.5992 0.600098 29.4992 3.1001 28.5992 6.4001C32.0992 8.1001 34.4992 11.7001 34.4992 15.8001C34.4992 15.9001 34.4992 16.1001 34.4992 16.2001C35.0992 16.3001 35.5992 16.4001 36.2992 16.4001C40.6992 16.4001 44.1992 12.9001 44.1992 8.5001C44.1992 4.1001 40.4992 0.600098 36.1992 0.600098Z" fill="#1C83E5"/>
<path d="M42.2 20.6001H33.3C32.2 22.7001 30.4 24.4001 28.2 25.4001H30C34.3 25.4001 37.9 28.9001 37.9 33.3001V40.2001C41.3 40.1001 44.5 39.5001 47.5 38.6001V25.9001C47.5 23.0001 45.1 20.6001 42.2 20.6001ZM13.6 16.2001C13.6 16.1001 13.6 15.9001 13.6 15.8001C13.6 11.7001 16 8.1001 19.5 6.4001C18.6 3.0001 15.5 0.600098 11.9 0.600098C7.5 0.600098 4 4.1001 4 8.5001C4 12.9001 7.5 16.4001 11.9 16.4001C12.4 16.4001 13 16.3001 13.6 16.2001ZM10.1 33.2001C10.1 28.9001 13.6 25.3001 18 25.3001H19.9C17.7 24.3001 15.9 22.6001 14.8 20.5001H5.8C2.9 20.5001 0.5 22.9001 0.5 25.8001V38.3001C3.5 39.2001 6.8 39.8001 10.1 39.9001V33.2001Z" fill="#1C83E5"/>
</svg>
