<svg width="56" height="57" viewBox="0 0 56 57" fill="none" xmlns="http://www.w3.org/2000/svg">
<path d="M23.7564 7.05737C9.6086 7.05737 1.12012 18.4063 1.12012 24.0814C1.12012 29.7564 3.94924 34.0124 9.6086 34.0124C15.268 34.0124 18.0982 35.4303 18.0982 39.6863C18.0982 45.3603 22.3419 49.6163 28.0012 49.6163C46.3939 49.6163 54.8812 39.6863 54.8812 29.7564C54.8801 12.7324 40.73 7.05737 23.7564 7.05737ZM20.2195 12.7324C20.6845 12.733 21.1449 12.8252 21.5744 13.0037C22.0038 13.1822 22.3939 13.4436 22.7223 13.7728C23.0508 14.1021 23.3111 14.4928 23.4886 14.9227C23.666 15.3526 23.757 15.8133 23.7564 16.2783C23.7564 18.2383 22.1728 19.8254 20.2195 19.8254C18.2662 19.8254 16.6825 18.2372 16.6825 16.2783C16.6819 15.8133 16.7729 15.3526 16.9504 14.9227C17.1278 14.4928 17.3882 14.1021 17.7166 13.7728C18.045 13.4436 18.4351 13.1822 18.8646 13.0037C19.294 12.8252 19.7544 12.733 20.2195 12.7324ZM31.536 12.7324C32.001 12.733 32.4614 12.8252 32.8909 13.0037C33.3203 13.1822 33.7104 13.4436 34.0388 13.7728C34.3673 14.1021 34.6276 14.4928 34.8051 14.9227C34.9825 15.3526 35.0735 15.8133 35.0729 16.2783C35.0737 16.7435 34.9827 17.2042 34.8054 17.6343C34.628 18.0643 34.3677 18.4552 34.0392 18.7845C33.7108 19.1139 33.3206 19.3754 32.8911 19.554C32.4616 19.7326 32.0011 19.8248 31.536 19.8254C31.0709 19.8246 30.6105 19.7323 30.1811 19.5537C29.7517 19.375 29.3618 19.1135 29.0334 18.7842C28.7051 18.4548 28.4448 18.064 28.2675 17.634C28.0903 17.2041 27.9994 16.7434 28.0001 16.2783C27.9989 15.3393 28.3707 14.4382 29.0338 13.7732C29.6969 13.1083 30.5969 12.7339 31.536 12.7324ZM42.8547 18.4063C43.3199 18.4068 43.7805 18.4989 44.2102 18.6774C44.6398 18.8559 45.0301 19.1174 45.3587 19.4468C45.6872 19.7762 45.9477 20.1671 46.1251 20.5972C46.3025 21.0273 46.3935 21.4881 46.3928 21.9534C46.3935 22.4186 46.3025 22.8794 46.1251 23.3094C45.9476 23.7394 45.6872 24.1303 45.3586 24.4596C45.03 24.7889 44.6397 25.0502 44.2101 25.2286C43.7805 25.407 43.3199 25.499 42.8547 25.4993C42.3896 25.4989 41.9292 25.4068 41.4998 25.2283C41.0703 25.0498 40.6803 24.7884 40.3519 24.4591C40.0235 24.1298 39.7632 23.739 39.586 23.3091C39.4087 22.8791 39.318 22.4184 39.3188 21.9534C39.318 21.4883 39.4087 21.0275 39.586 20.5975C39.7632 20.1675 40.0234 19.7766 40.3518 19.4472C40.6802 19.1178 41.0702 18.8564 41.4997 18.6778C41.9291 18.4992 42.3896 18.4069 42.8547 18.4063ZM10.3164 21.2444C10.7814 21.2449 11.2417 21.3369 11.6711 21.5153C12.1005 21.6937 12.4905 21.955 12.8188 22.2842C13.1472 22.6134 13.4075 23.0041 13.5848 23.4339C13.7621 23.8637 13.853 24.3243 13.8523 24.7892C13.8523 26.7492 12.2686 28.3363 10.3164 28.3363C8.36428 28.3363 6.77948 26.7481 6.77948 24.7892C6.77859 23.8502 7.15069 22.9492 7.81397 22.2844C8.47725 21.6197 9.37738 21.2456 10.3164 21.2444ZM28.0001 35.4303C30.3443 35.4303 32.2438 37.3343 32.2438 39.6875C32.2438 42.0372 30.3443 43.9423 28.0001 43.9423C25.656 43.9423 23.7564 42.0372 23.7564 39.6875C23.7554 39.1292 23.8644 38.5763 24.0771 38.0602C24.2898 37.5441 24.6022 37.075 24.9963 36.6797C25.3904 36.2843 25.8585 35.9705 26.3739 35.7561C26.8893 35.5418 27.4419 35.4311 28.0001 35.4303Z" fill="url(#paint0_linear_1_1010)"/>
<defs>
<linearGradient id="paint0_linear_1_1010" x1="-10.545" y1="7.05737" x2="64.332" y2="28.2992" gradientUnits="userSpaceOnUse">
<stop stop-color="#78CEFF"/>
<stop offset="0.802412" stop-color="#0295FA"/>
</linearGradient>
</defs>
</svg>
