<svg width="52" height="52" viewBox="0 0 52 52" fill="none" xmlns="http://www.w3.org/2000/svg">
<path d="M40.8558 4.5874H19.6462C17.2853 4.5874 15.3749 6.49778 15.3749 8.85865V20.8373L5.38316 30.7015C5.08378 30.9976 4.87911 31.376 4.79513 31.7886C4.71116 32.2012 4.75165 32.6295 4.91148 33.019C5.07131 33.4086 5.34327 33.7419 5.69284 33.9766C6.04241 34.2113 6.45384 34.3369 6.87491 34.3374V44.9624C6.87491 45.526 7.09879 46.0665 7.49731 46.465C7.89582 46.8635 8.43633 47.0874 8.99991 47.0874H42.9999C43.5635 47.0874 44.104 46.8635 44.5025 46.465C44.901 46.0665 45.1249 45.526 45.1249 44.9624V8.85653C45.1249 6.49778 43.2167 4.5874 40.8558 4.5874ZM23.7092 32.4483V42.8374H11.1249V31.0054L17.4723 24.7388L23.7092 31.1201V32.4483ZM28.1249 19.4624H23.8749V15.2124H28.1249V19.4624ZM36.6249 36.4624H32.3749V32.2124H36.6249V36.4624ZM36.6249 27.9624H32.3749V23.7124H36.6249V27.9624ZM36.6249 19.4624H32.3749V15.2124H36.6249V19.4624Z" fill="url(#paint0_linear_1_1014)"/>
<path d="M15.375 32.2124H19.625V36.4624H15.375V32.2124Z" fill="url(#paint1_linear_1_1014)"/>
<defs>
<linearGradient id="paint0_linear_1_1014" x1="-4.00762" y1="4.5874" x2="54.1027" y2="16.9843" gradientUnits="userSpaceOnUse">
<stop stop-color="#78CEFF"/>
<stop offset="0.802412" stop-color="#0295FA"/>
</linearGradient>
<linearGradient id="paint1_linear_1_1014" x1="14.4528" y1="32.2124" x2="20.5414" y2="33.5798" gradientUnits="userSpaceOnUse">
<stop stop-color="#78CEFF"/>
<stop offset="0.802412" stop-color="#0295FA"/>
</linearGradient>
</defs>
</svg>
