<svg width="44" height="45" viewBox="0 0 44 45" fill="none" xmlns="http://www.w3.org/2000/svg">
<g clip-path="url(#clip0_1_1038)">
<path d="M5.49329 0.835083C2.47775 0.835083 0 3.31284 0 6.32837V15.4922C0 18.5077 2.47775 21.0034 5.49329 21.0034H14.6714C17.687 21.0034 20.1647 18.5077 20.1647 15.4922V6.32837C20.1647 3.31284 17.687 0.835083 14.6714 0.835083H5.49329ZM29.3286 0.835083C26.313 0.835083 23.8353 3.31284 23.8353 6.32837V15.4922C23.8353 18.5077 26.313 21.0034 29.3286 21.0034H38.5067C41.5223 21.0034 44 18.5077 44 15.4922V6.32837C44 3.31284 41.5223 0.835083 38.5067 0.835083H29.3286ZM5.49329 24.6704C2.47775 24.6704 0 27.1481 0 30.1636V39.3418C0 42.3573 2.47775 44.8351 5.49329 44.8351H14.6714C17.687 44.8351 20.1647 42.3573 20.1647 39.3418V30.1636C20.1647 27.1481 17.687 24.6704 14.6714 24.6704H5.49329ZM29.3286 24.6704C26.313 24.6704 23.8353 27.1481 23.8353 30.1636V39.3418C23.8353 42.3573 26.313 44.8351 29.3286 44.8351H38.5067C41.5223 44.8351 44 42.3573 44 39.3418V30.1636C44 27.1481 41.5223 24.6704 38.5067 24.6704H29.3286Z" fill="url(#paint0_linear_1_1038)"/>
</g>
<defs>
<linearGradient id="paint0_linear_1_1038" x1="-9.54717" y1="0.835082" x2="53.4876" y2="14.9912" gradientUnits="userSpaceOnUse">
<stop stop-color="#78CEFF"/>
<stop offset="0.802412" stop-color="#0295FA"/>
</linearGradient>
<clipPath id="clip0_1_1038">
<rect width="44" height="44" fill="white" transform="translate(0 0.837402)"/>
</clipPath>
</defs>
</svg>
