<svg width="54" height="54" viewBox="0 0 54 54" fill="none" xmlns="http://www.w3.org/2000/svg">
<path d="M10.4376 26.8374C13.4867 26.8374 15.9584 24.3656 15.9584 21.3165C15.9584 18.2675 13.4867 15.7957 10.4376 15.7957C7.38851 15.7957 4.91675 18.2675 4.91675 21.3165C4.91675 24.3656 7.38851 26.8374 10.4376 26.8374Z" fill="url(#paint0_linear_1_1030)"/>
<path d="M20.3751 18.0041C23.4242 18.0041 25.8959 15.5323 25.8959 12.4832C25.8959 9.43416 23.4242 6.9624 20.3751 6.9624C17.326 6.9624 14.8542 9.43416 14.8542 12.4832C14.8542 15.5323 17.326 18.0041 20.3751 18.0041Z" fill="url(#paint1_linear_1_1030)"/>
<path d="M33.6251 18.0041C36.6742 18.0041 39.1459 15.5323 39.1459 12.4832C39.1459 9.43416 36.6742 6.9624 33.6251 6.9624C30.576 6.9624 28.1042 9.43416 28.1042 12.4832C28.1042 15.5323 30.576 18.0041 33.6251 18.0041Z" fill="url(#paint2_linear_1_1030)"/>
<path d="M43.5626 26.8374C46.6117 26.8374 49.0834 24.3656 49.0834 21.3165C49.0834 18.2675 46.6117 15.7957 43.5626 15.7957C40.5135 15.7957 38.0417 18.2675 38.0417 21.3165C38.0417 24.3656 40.5135 26.8374 43.5626 26.8374Z" fill="url(#paint3_linear_1_1030)"/>
<path d="M38.7926 33.1532C36.8713 30.9007 35.2593 28.9795 33.3159 26.727C32.3001 25.5345 30.9972 24.342 29.4513 23.812C29.2084 23.7237 28.9655 23.6574 28.7226 23.6132C28.1705 23.5249 27.5743 23.5249 27.0001 23.5249C26.4259 23.5249 25.8297 23.5249 25.2555 23.6353C25.0126 23.6795 24.7697 23.7457 24.5268 23.8341C22.9809 24.3641 21.7001 25.5566 20.6622 26.7491C18.7409 29.0016 17.1288 30.9228 15.1855 33.1753C12.2926 36.0682 8.73718 39.2703 9.39968 43.7532C10.0401 46.0057 11.6522 48.2362 14.5451 48.8766C16.1572 49.2078 21.3026 47.9049 26.7793 47.9049H27.1768C32.6534 47.9049 37.7988 49.1857 39.4109 48.8766C42.3038 48.2362 43.9159 45.9837 44.5563 43.7532C45.2409 39.2482 41.6855 36.0462 38.7926 33.1532Z" fill="url(#paint4_linear_1_1030)"/>
<defs>
<linearGradient id="paint0_linear_1_1030" x1="2.52091" y1="15.7957" x2="18.3393" y2="19.3482" gradientUnits="userSpaceOnUse">
<stop stop-color="#78CEFF"/>
<stop offset="0.802412" stop-color="#0295FA"/>
</linearGradient>
<linearGradient id="paint1_linear_1_1030" x1="12.4584" y1="6.9624" x2="28.2768" y2="10.5148" gradientUnits="userSpaceOnUse">
<stop stop-color="#78CEFF"/>
<stop offset="0.802412" stop-color="#0295FA"/>
</linearGradient>
<linearGradient id="paint2_linear_1_1030" x1="25.7084" y1="6.9624" x2="41.5268" y2="10.5148" gradientUnits="userSpaceOnUse">
<stop stop-color="#78CEFF"/>
<stop offset="0.802412" stop-color="#0295FA"/>
</linearGradient>
<linearGradient id="paint3_linear_1_1030" x1="35.6459" y1="15.7957" x2="51.4643" y2="19.3482" gradientUnits="userSpaceOnUse">
<stop stop-color="#78CEFF"/>
<stop offset="0.802412" stop-color="#0295FA"/>
</linearGradient>
<linearGradient id="paint4_linear_1_1030" x1="1.65468" y1="23.5249" x2="50.0887" y2="38.6481" gradientUnits="userSpaceOnUse">
<stop stop-color="#78CEFF"/>
<stop offset="0.802412" stop-color="#0295FA"/>
</linearGradient>
</defs>
</svg>
