<svg width="58" height="59" viewBox="0 0 58 59" fill="none" xmlns="http://www.w3.org/2000/svg">
<g clip-path="url(#clip0_1_1023)">
<path d="M7.25 10.0041C7.25 9.36313 7.50461 8.74844 7.95783 8.29523C8.41104 7.84201 9.02573 7.5874 9.66667 7.5874C10.3076 7.5874 10.9223 7.84201 11.3755 8.29523C11.8287 8.74844 12.0833 9.36313 12.0833 10.0041H50.75C51.3909 10.0041 52.0056 10.2587 52.4588 10.7119C52.9121 11.1651 53.1667 11.7798 53.1667 12.4207C53.1667 13.0617 52.9121 13.6764 52.4588 14.1296C52.0056 14.5828 51.3909 14.8374 50.75 14.8374H12.0833V52.2957C12.0833 52.6162 11.956 52.9236 11.7294 53.1502C11.5028 53.3768 11.1955 53.5041 10.875 53.5041H8.45833C8.13786 53.5041 7.83052 53.3768 7.60391 53.1502C7.37731 52.9236 7.25 52.6162 7.25 52.2957V10.0041ZM14.5 19.0666C14.5 18.5859 14.691 18.1248 15.0309 17.7849C15.3708 17.445 15.8318 17.2541 16.3125 17.2541H48.9375C49.4182 17.2541 49.8792 17.445 50.2191 17.7849C50.559 18.1248 50.75 18.5859 50.75 19.0666V39.6082C50.75 41.3708 50.0498 43.0612 48.8035 44.3076C47.5571 45.5539 45.8668 46.2541 44.1042 46.2541H21.1458C20.2731 46.2541 19.4089 46.0822 18.6026 45.7482C17.7963 45.4142 17.0636 44.9247 16.4465 44.3076C15.2002 43.0612 14.5 41.3708 14.5 39.6082V19.0666ZM24.1667 30.4491V37.7957C24.1667 38.1162 24.294 38.4236 24.5206 38.6502C24.7472 38.8768 25.0545 39.0041 25.375 39.0041H29.6042C29.7644 39.0041 29.9181 38.9404 30.0314 38.8271C30.1447 38.7138 30.2083 38.5601 30.2083 38.3999V35.3791C30.2083 35.0586 30.3356 34.7513 30.5622 34.5246C30.7889 34.298 31.0962 34.1707 31.4167 34.1707H33.8333C34.1538 34.1707 34.4611 34.298 34.6878 34.5246C34.9144 34.7513 35.0417 35.0586 35.0417 35.3791V38.3999C35.0417 38.7334 35.3123 39.0041 35.6458 39.0041H39.875C40.1955 39.0041 40.5028 38.8768 40.7294 38.6502C40.956 38.4236 41.0833 38.1162 41.0833 37.7957V30.4491C41.0834 30.1 41.0078 29.7551 40.8617 29.438C40.7157 29.121 40.5028 28.8393 40.2375 28.6124L33.4128 22.7641C33.194 22.5769 32.9154 22.474 32.6274 22.474C32.3394 22.474 32.0609 22.5769 31.842 22.7641L25.0101 28.6124C24.7456 28.8393 24.5332 29.1206 24.3877 29.4372C24.2421 29.7538 24.1667 30.0982 24.1667 30.4467V30.4491Z" fill="url(#paint0_linear_1_1023)"/>
<rect x="47.0725" y="4.54028" width="5.04348" height="4.2029" fill="url(#paint1_linear_1_1023)"/>
<rect x="53.7971" y="7.90265" width="5.04348" height="4.2029" fill="url(#paint2_linear_1_1023)"/>
<rect x="52.9565" y="0.337402" width="5.04348" height="4.2029" fill="url(#paint3_linear_1_1023)"/>
</g>
<defs>
<linearGradient id="paint0_linear_1_1023" x1="-2.71305" y1="7.5874" x2="63.0676" y2="22.3602" gradientUnits="userSpaceOnUse">
<stop stop-color="#78CEFF"/>
<stop offset="0.802412" stop-color="#0295FA"/>
</linearGradient>
<linearGradient id="paint1_linear_1_1023" x1="45.9782" y1="4.54028" x2="53.054" y2="6.44717" gradientUnits="userSpaceOnUse">
<stop stop-color="#78CEFF"/>
<stop offset="0.802412" stop-color="#0295FA"/>
</linearGradient>
<linearGradient id="paint2_linear_1_1023" x1="52.7028" y1="7.90265" x2="59.7786" y2="9.80953" gradientUnits="userSpaceOnUse">
<stop stop-color="#78CEFF"/>
<stop offset="0.802412" stop-color="#0295FA"/>
</linearGradient>
<linearGradient id="paint3_linear_1_1023" x1="51.8622" y1="0.337402" x2="58.9381" y2="2.24429" gradientUnits="userSpaceOnUse">
<stop stop-color="#78CEFF"/>
<stop offset="0.802412" stop-color="#0295FA"/>
</linearGradient>
<clipPath id="clip0_1_1023">
<rect width="58" height="58" fill="white" transform="translate(0 0.337402)"/>
</clipPath>
</defs>
</svg>
