<svg width="56" height="57" viewBox="0 0 56 57" fill="none" xmlns="http://www.w3.org/2000/svg">
<g clip-path="url(#clip0_1_1019)">
<path d="M54.119 6.98893C49.279 5.40219 36.75 1.29646 36.75 1.33771C36.75 3.52573 35.8808 5.62414 34.3336 7.17131C32.7865 8.71848 30.688 9.58766 28.5 9.58766C26.312 9.58766 24.2136 8.71848 22.6664 7.17131C21.1192 5.62414 20.25 3.52573 20.25 1.33771C20.25 1.29646 7.72103 5.40219 2.87829 6.98893C2.32961 7.16878 1.85214 7.51808 1.51462 7.98656C1.1771 8.45503 0.996927 9.01852 1.00004 9.59591V19.8149C1.00016 20.2326 1.09543 20.6448 1.27863 21.0202C1.46183 21.3956 1.72814 21.7243 2.05736 21.9814C2.38657 22.2385 2.77003 22.4173 3.17863 22.5041C3.58723 22.5909 4.01023 22.5834 4.41554 22.4823L12 20.5876V53.5874C12 54.3168 12.2898 55.0162 12.8055 55.532C13.3212 56.0477 14.0207 56.3374 14.75 56.3374H42.25C42.9793 56.3374 43.6788 56.0477 44.1945 55.532C44.7103 55.0162 45 54.3168 45 53.5874V20.5876L52.5845 22.4823C52.9898 22.5834 53.4128 22.5909 53.8214 22.5041C54.23 22.4173 54.6134 22.2385 54.9427 21.9814C55.2719 21.7243 55.5382 21.3956 55.7214 21.0202C55.9046 20.6448 55.9999 20.2326 56 19.8149V9.59591C56.0029 9.01818 55.8223 8.45444 55.4843 7.98592C55.1462 7.5174 54.6682 7.1683 54.119 6.98893Z" fill="url(#paint0_linear_1_1019)"/>
</g>
<defs>
<linearGradient id="paint0_linear_1_1019" x1="-10.934" y1="1.3374" x2="67.8595" y2="19.0326" gradientUnits="userSpaceOnUse">
<stop stop-color="#78CEFF"/>
<stop offset="0.802412" stop-color="#0295FA"/>
</linearGradient>
<clipPath id="clip0_1_1019">
<rect width="56" height="56" fill="white" transform="translate(0 0.337402)"/>
</clipPath>
</defs>
</svg>
