<?xml version="1.0" encoding="UTF-8"?>
<svg width="12px" height="16px" viewBox="0 0 12 16" version="1.1" xmlns="http://www.w3.org/2000/svg" xmlns:xlink="http://www.w3.org/1999/xlink">
    <title>Combined Shape Copy</title>
    <g id="Symbols" stroke="none" stroke-width="1" fill="none" fill-rule="evenodd">
        <g id="Wallet-2" transform="translate(0.000000, -3.000000)" fill="#16255C" fill-rule="nonzero">
            <path d="M6.41612246,3.18810707 L11.7170722,8.43851196 C11.9702783,8.68932139 11.9702783,9.10449744 11.7170722,9.35543291 C11.5947095,9.48518238 11.4201531,9.54571236 11.2542309,9.54571236 C11.0884508,9.54571236 10.9225211,9.48518238 10.7915393,9.35543291 L6.608,5.212 L6.60837732,18.3512527 C6.60837732,18.7058913 6.31145826,19 5.95343083,19 C5.5954034,19 5.29848434,18.7058913 5.29848434,18.3512527 L5.298,5.212 L1.11554696,9.35543291 C0.862340908,9.60624234 0.44319761,9.60624234 0.190014011,9.35543291 C-0.0633380036,9.10447891 -0.0633380036,8.68929914 0.190014011,8.43851196 L5.4905895,3.18810707 C5.74379556,2.93729764 6.16293886,2.93729764 6.41612246,3.18810707 Z" id="Combined-Shape-Copy" transform="translate(5.953488, 11.000000) rotate(-180.000000) translate(-5.953488, -11.000000) "></path>
        </g>
    </g>
</svg>