<?xml version="1.0" encoding="UTF-8"?>
<svg width="240px" height="66px" viewBox="0 0 240 66" version="1.1" xmlns="http://www.w3.org/2000/svg" xmlns:xlink="http://www.w3.org/1999/xlink">
    <title>Group 57</title>
    <g id="Design" stroke="none" stroke-width="1" fill="none" fill-rule="evenodd">
        <g id="Group-57">
            <rect id="Rectangle" fill="#40CC8A" x="0" y="0" width="240" height="65" rx="32.5"></rect>
            <path d="M204.375,5 C217.146585,5 227.5,15.3534152 227.5,28.125 L227.49793,28.4416609 C227.332936,16.1573815 217.323464,6.25 205,6.25 L205,6.25 L37.5,6.25 C25.0735931,6.25 15,16.3235931 15,28.75 L15.0021233,28.4416207 C15.0007093,28.3362491 15,28.2307074 15,28.125 C15,15.3534152 25.3534152,5 38.125,5 L204.375,5 Z" id="Combined-Shape" fill="#FFFFFF" opacity="0.141206287"></path>
            <path d="M21,63 C43.7103741,49.5823323 60.3276573,40.9296765 70.8518496,37.0420327 C86.6381381,31.2105668 137.154261,29.2667449 156.097807,30.2386559 C168.726838,30.8865965 192.396747,31.4497334 227.107533,31.9280664 C227.740889,47.9952865 219.857269,57.7992 203.456673,61.3398069 C187.056076,64.8804139 129.237185,66.1004783 30,65 C27.2646074,64.6143572 25.2646074,64.2810239 24,64 C22.7353926,63.7189761 21.7353926,63.3856428 21,63 Z" id="Path" fill-opacity="0.0536221591" fill="#000000"></path>
        </g>
    </g>
</svg>