<?xml version="1.0" encoding="UTF-8"?>
<svg width="18px" height="18px" viewBox="0 0 18 18" version="1.1" xmlns="http://www.w3.org/2000/svg" xmlns:xlink="http://www.w3.org/1999/xlink">
    <title>Combined Shape</title>
    <g id="Symbols" stroke="none" stroke-width="1" fill="none" fill-rule="evenodd">
        <g id="Offer" fill="#16255C" fill-rule="nonzero">
            <path d="M8.98423818,0 C9.55166375,0 10.0245184,0.410526316 10.4028021,0.757894737 C10.591944,0.947368421 10.8126095,1.13684211 11.0647986,1.23157895 C11.3485114,1.26315789 11.6322242,1.23157895 11.915937,1.13684211 C12.4203152,1.04210526 12.9877408,0.915789474 13.4921191,1.2 C13.9964974,1.48421053 14.1541156,2.05263158 14.3432574,2.55789474 C14.4063047,2.84210526 14.5323993,3.09473684 14.6900175,3.31578947 C14.910683,3.47368421 15.1943958,3.6 15.4465849,3.66315789 C15.9509632,3.82105263 16.5183888,4.01052632 16.8021016,4.48421053 C17.0858144,4.95789474 16.9597198,5.55789474 16.8651489,6.06315789 C16.7705779,6.34736842 16.7390543,6.63157895 16.7705779,6.91578947 C16.8966725,7.16842105 17.0542907,7.38947368 17.2434326,7.57894737 C17.5901926,7.95789474 18,8.43157895 18,9 C18,9.56842105 17.5901926,10.0421053 17.2434326,10.4210526 C17.0542907,10.6105263 16.8651489,10.8315789 16.7705779,11.0842105 C16.7390543,11.3684211 16.7705779,11.6526316 16.8651489,11.9368421 C16.9597198,12.4421053 17.0858144,13.0105263 16.8021016,13.5157895 C16.5183888,14.0210526 15.9509632,14.1789474 15.4465849,14.3684211 C15.1628722,14.4315789 14.910683,14.5578947 14.6900175,14.7157895 C14.5323993,14.9368421 14.4063047,15.2210526 14.3432574,15.4736842 C14.1856392,15.9789474 13.9964974,16.5473684 13.5236427,16.8315789 C13.0507881,17.1157895 12.4518389,16.9894737 11.9474606,16.8947368 C11.6637478,16.8 11.380035,16.7684211 11.0963222,16.8 C10.8441331,16.9263158 10.6234676,17.0842105 10.4343257,17.2736842 C10.0245184,17.6210526 9.55166375,18 8.98423818,18 C8.41681261,18 7.94395797,17.5894737 7.56567426,17.2421053 C7.3765324,17.0526316 7.1558669,16.8631579 6.90367776,16.7684211 C6.61996497,16.7368421 6.33625219,16.7684211 6.0525394,16.8631579 C5.54816112,16.9578947 4.98073555,17.0842105 4.47635727,16.8 C3.97197898,16.5157895 3.81436077,15.9473684 3.65674256,15.4421053 C3.59369527,15.1578947 3.4676007,14.9052632 3.30998249,14.6842105 C3.08931699,14.5263158 2.8056042,14.4 2.55341506,14.3368421 C2.04903678,14.1789474 1.48161121,13.9894737 1.19789842,13.5157895 C0.914185639,13.0421053 1.04028021,12.4421053 1.13485114,11.9368421 C1.22942207,11.6526316 1.26094571,11.3684211 1.22942207,11.0842105 C1.1033275,10.8315789 0.945709282,10.6105263 0.756567426,10.4210526 C0.409807356,10.0421053 0,9.56842105 0,9 C0,8.43157895 0.409807356,7.95789474 0.756567426,7.57894737 C0.945709282,7.38947368 1.13485114,7.16842105 1.22942207,6.91578947 C1.26094571,6.63157895 1.22942207,6.34736842 1.13485114,6.06315789 C1.04028021,5.55789474 0.914185639,4.98947368 1.19789842,4.48421053 C1.48161121,3.97894737 2.04903678,3.82105263 2.55341506,3.66315789 C2.83712785,3.6 3.08931699,3.47368421 3.30998249,3.31578947 C3.4676007,3.09473684 3.59369527,2.81052632 3.65674256,2.55789474 C3.81436077,2.05263158 4.00350263,1.48421053 4.47635727,1.2 C4.94921191,0.915789474 5.54816112,1.04210526 6.0525394,1.13684211 C6.33625219,1.23157895 6.61996497,1.26315789 6.90367776,1.23157895 C7.1558669,1.10526316 7.3765324,0.947368421 7.56567426,0.757894737 C7.94395797,0.410526316 8.41681261,0 8.98423818,0 Z M8.98423818,0.947368421 C8.76357268,0.947368421 8.47985989,1.2 8.19614711,1.45263158 C7.91243433,1.76842105 7.53415061,1.98947368 7.1558669,2.14736842 C6.7145359,2.21052632 6.2732049,2.21052632 5.86339755,2.08421053 C5.51663748,2.02105263 5.13835377,1.92631579 4.94921191,2.02105263 C4.76007005,2.11578947 4.63397548,2.49473684 4.53940455,2.84210526 C4.44483363,3.25263158 4.25569177,3.66315789 3.97197898,3.97894737 C3.65674256,4.26315789 3.2469352,4.45263158 2.83712785,4.54736842 C2.49036778,4.64210526 2.11208406,4.76842105 2.01751313,4.95789474 C1.92294221,5.11578947 1.98598949,5.52631579 2.08056042,5.87368421 C2.20665499,6.28421053 2.23817863,6.72631579 2.14360771,7.16842105 C1.98598949,7.57894737 1.76532399,7.92631579 1.45008757,8.21052632 C1.19789842,8.49473684 0.945709282,8.77894737 0.945709282,9 C0.945709282,9.22105263 1.19789842,9.50526316 1.45008757,9.78947368 C1.76532399,10.0736842 1.98598949,10.4526316 2.14360771,10.8315789 C2.20665499,11.2736842 2.20665499,11.7157895 2.08056042,12.1263158 C2.01751313,12.4736842 1.92294221,12.8526316 2.01751313,13.0421053 C2.11208406,13.2315789 2.49036778,13.3578947 2.83712785,13.4526316 C3.2469352,13.5473684 3.65674256,13.7368421 3.97197898,14.0210526 C4.25569177,14.3368421 4.44483363,14.7473684 4.53940455,15.1578947 C4.63397548,15.5052632 4.76007005,15.8842105 4.94921191,15.9789474 C5.10683012,16.0736842 5.51663748,16.0105263 5.86339755,15.9157895 C6.14711033,15.8526316 6.43082312,15.8210526 6.74605954,15.7894737 C6.87215412,15.7894737 7.02977233,15.8210526 7.1558669,15.8526316 C7.56567426,16.0105263 7.91243433,16.2315789 8.19614711,16.5473684 C8.47985989,16.8 8.76357268,17.0526316 8.98423818,17.0526316 C9.20490368,17.0526316 9.48861646,16.8 9.77232925,16.5473684 C10.056042,16.2315789 10.4343257,16.0105263 10.8126095,15.8526316 C11.2539405,15.7894737 11.6952715,15.7894737 12.1050788,15.9157895 L12.3676116,15.965625 C12.6291594,16.0144737 12.8774081,16.05 13.0192644,15.9789474 C13.2084063,15.8842105 13.3345009,15.5052632 13.4290718,15.1578947 C13.5236427,14.7473684 13.7127846,14.3368421 13.9964974,14.0210526 C14.3117338,13.7368421 14.7215412,13.5473684 15.1313485,13.4526316 C15.4781086,13.3578947 15.8563923,13.2315789 15.9509632,13.0421053 C16.0455342,12.8842105 15.9824869,12.4736842 15.8879159,12.1263158 C15.7618214,11.7157895 15.7302977,11.2736842 15.8248687,10.8315789 C15.9824869,10.4210526 16.2031524,10.0736842 16.5183888,9.78947368 C16.7705779,9.50526316 17.0227671,9.22105263 17.0227671,9 C17.0227671,8.77894737 16.7705779,8.49473684 16.5183888,8.21052632 C16.2031524,7.92631579 15.9824869,7.54736842 15.8248687,7.16842105 C15.7618214,6.72631579 15.7618214,6.28421053 15.8879159,5.87368421 C15.9509632,5.52631579 16.0455342,5.14736842 15.9509632,4.95789474 C15.8563923,4.76842105 15.4781086,4.64210526 15.1313485,4.54736842 C14.7215412,4.45263158 14.3117338,4.26315789 13.9964974,3.97894737 C13.7127846,3.66315789 13.5236427,3.25263158 13.4290718,2.84210526 C13.3345009,2.49473684 13.2084063,2.11578947 13.0192644,2.02105263 C12.8616462,1.92631579 12.4518389,1.98947368 12.1050788,2.08421053 C11.6952715,2.21052632 11.2539405,2.24210526 10.8126095,2.14736842 C10.4028021,1.98947368 10.056042,1.76842105 9.77232925,1.45263158 C9.48861646,1.2 9.20490368,0.947368421 8.98423818,0.947368421 Z M12.609277,5.02087218 C12.7984188,5.21034586 12.7984188,5.49455639 12.6408006,5.68403008 L6.02083563,12.947188 C5.9262647,13.0419248 5.80017013,13.1050827 5.67407556,13.1050827 C5.42188641,13.1050827 5.20122092,12.8840301 5.20122092,12.6313985 C5.20122092,12.5050827 5.23274456,12.4103459 5.32731549,12.315609 L11.9472805,5.05245113 C12.1364223,4.86297744 12.4201351,4.86297744 12.609277,5.02087218 Z M11.0334551,9.6313985 C11.9791644,9.6313985 12.7672554,10.4208722 12.7672554,11.3682406 C12.7672554,12.315609 11.9791644,13.1050827 11.0334551,13.1050827 C10.0877458,13.1050827 9.29965474,12.315609 9.29965474,11.3682406 C9.29965474,10.4208722 10.0877458,9.6313985 11.0334551,9.6313985 Z M11.0334551,10.5787669 C10.5921241,10.5787669 10.245364,10.9261353 10.245364,11.3682406 C10.245364,11.8103459 10.5921241,12.1577143 11.0334551,12.1577143 C11.4747861,12.1577143 11.8215462,11.8103459 11.8215462,11.3682406 C11.8215462,10.9261353 11.4747861,10.5787669 11.0334551,10.5787669 Z M6.93502127,4.89455639 C7.88073055,4.89455639 8.66882162,5.68403008 8.66882162,6.6313985 C8.66882162,7.57876692 7.88073055,8.3682406 6.93502127,8.3682406 C5.98931198,8.3682406 5.20122092,7.57876692 5.20122092,6.6313985 C5.20122092,5.68403008 5.98931198,4.89455639 6.93502127,4.89455639 Z M6.93502127,5.84192481 C6.49369027,5.84192481 6.1469302,6.18929323 6.1469302,6.6313985 C6.1469302,7.07350376 6.49369027,7.42087218 6.93502127,7.42087218 C7.37635226,7.42087218 7.72311233,7.07350376 7.72311233,6.6313985 C7.72311233,6.18929323 7.37635226,5.84192481 6.93502127,5.84192481 Z" id="Combined-Shape"></path>
        </g>
    </g>
</svg>