<?xml version="1.0" encoding="UTF-8"?>
<svg width="18px" height="18px" viewBox="0 0 18 18" version="1.1" xmlns="http://www.w3.org/2000/svg" xmlns:xlink="http://www.w3.org/1999/xlink">
    <title>Shape</title>
    <g id="Symbols" stroke="none" stroke-width="1" fill="none" fill-rule="evenodd">
        <g id="sale" fill="#16255C" fill-rule="nonzero">
            <path d="M10.8635401,1.12734046 C10.8823294,1.12734046 10.9007026,1.12797311 10.9186567,1.12894738 L15.8801877,1.4096744 C16.2497104,1.43069053 16.5691368,1.75011055 16.5901587,2.11964235 L16.8711649,7.08115181 C16.8921811,7.45081544 16.6949619,7.96731124 16.4334456,8.22912217 L7.98619421,16.6759807 C7.85536301,16.8068113 7.68291908,16.8723638 7.51035044,16.8723638 C7.33790651,16.8723638 7.16532005,16.8069503 7.03450666,16.6759807 L1.32402506,10.9651675 C1.06222369,10.7033673 1.06222369,10.2752594 1.32402506,10.0134484 L9.77092014,1.56658993 C10.0194991,1.3175952 10.4989914,1.12734046 10.8633477,1.12734046 M14.4106731,4.26208805 C14.5828391,4.26208805 14.7550087,4.19639303 14.8865169,4.06501012 C15.1492909,3.80223718 15.1492909,3.37606401 14.8865169,3.11329107 C14.7549909,2.98176564 14.5828248,2.91621314 14.4106731,2.91621314 C14.2385071,2.91621314 14.0660596,2.98190816 13.9348293,3.11329107 C13.6720552,3.37606401 13.6720552,3.80223718 13.9348293,4.06501012 C14.0662163,4.1963966 14.2383824,4.26208805 14.4106731,4.26208805 M10.8633477,0 C10.1933183,0 9.43367855,0.309259703 8.97340526,0.769541696 L0.526510181,9.2167565 C0.187048826,9.55621639 0,10.008282 0,10.4897177 C0,10.9711534 0.186920556,11.4230516 0.526510181,11.7626789 L6.23734809,17.4734921 C6.5769484,17.812952 7.02916211,18 7.51031481,18 C7.99175255,18 8.44393775,17.8130803 8.78328153,17.4734921 L17.2305329,9.0266336 C17.7207357,8.5364329 18.0358508,7.71041729 17.9967287,7.01797941 L17.7157225,2.05646995 C17.6624159,1.11629509 16.8842519,0.337881466 15.9439304,0.284685534 L10.9823995,0.0038195606 C10.943427,0.00159267126 10.9037632,0.000479226586 10.8634011,0.000479226586 L10.8633477,0 Z" id="Shape"></path>
        </g>
    </g>
</svg>