<?xml version="1.0" encoding="UTF-8"?>
<svg width="18px" height="15px" viewBox="0 0 18 15" version="1.1" xmlns="http://www.w3.org/2000/svg" xmlns:xlink="http://www.w3.org/1999/xlink">
    <title>Shape</title>
    <g id="Symbols" stroke="none" stroke-width="1" fill="none" fill-rule="evenodd">
        <g id="BUY" transform="translate(0.000000, -1.000000)" fill="#16255C" fill-rule="nonzero">
            <path d="M6.62364894,12.3054263 C5.58708211,12.3054263 4.72757269,13.142819 4.72757269,14.1527132 C4.72757269,15.1626073 5.58708211,16 6.62364894,16 C7.66021577,16 8.51972519,15.1626073 8.51972519,14.1527132 C8.51972519,13.1182325 7.66021577,12.3054263 6.62364894,12.3054263 Z M6.62364894,15.0146924 C6.14326448,15.0146924 5.73872307,14.6205649 5.73872307,14.1525372 C5.73872307,13.6845095 6.14325997,13.2903821 6.62364894,13.2903821 C7.10403792,13.2903821 7.50857482,13.6845095 7.50857482,14.1525372 C7.50857482,14.6207365 7.10403792,15.0146924 6.62364894,15.0146924 Z M12.9691841,12.3054263 C11.9326173,12.3054263 11.0731079,13.142819 11.0731079,14.1527132 C11.0731079,15.1626073 11.9326173,16 12.9691841,16 C14.005751,16 14.8652604,15.1626073 14.8652604,14.1527132 C14.8652604,13.1182325 14.0309868,12.3054263 12.9691841,12.3054263 Z M12.9691841,15.0146924 C12.4887997,15.0146924 12.0842583,14.6205649 12.0842583,14.1525372 C12.0842583,13.6845095 12.4887952,13.2903821 12.9691841,13.2903821 C13.4495731,13.2903821 13.85411,13.6845095 13.85411,14.1525372 C13.8539336,14.6207365 13.4747909,15.0146924 12.9691841,15.0146924 Z M15.4466786,9.22652698 L5.51123906,9.22652698 C5.61228639,9.59591398 5.68829196,9.86687577 5.73872758,10.0393332 C5.91578048,10.7535295 6.32014582,10.7535295 6.32014582,10.7535295 L14.2836661,10.7535295 C15.3454688,10.7535295 15.8764153,11.5170307 16.0281014,11.9604675 C16.1039309,12.2068428 15.9774897,12.5023383 15.699394,12.5762298 C15.6487823,12.6007983 15.5983467,12.6007983 15.547735,12.6007983 C15.3454643,12.6007983 15.1431981,12.4776106 15.0673505,12.2805491 C15.0421331,12.2312397 14.839862,11.7632208 14.2836841,11.7632208 L6.3454449,11.7633927 C6.3454449,11.7633927 5.15723711,11.8372709 4.7526957,10.3102377 C4.4998133,9.32510599 2.90722663,3.51222213 2.47749449,1.98513168 L0.505575189,1.98513168 C0.227474977,1.98513168 0,1.76349684 0,1.49256584 C0,1.22162164 0.22748852,1 0.505575189,1 L2.85661945,1 C3.08410797,1 3.28637416,1.14775656 3.33700391,1.36938699 C3.33700391,1.36938699 4.50002097,5.65513643 5.20784429,8.2659245 L15.0674408,8.2659245 L16.7864596,3.06889088 L4.9043818,3.06889088 C4.62628159,3.06889088 4.39880661,2.84725604 4.39880661,2.57632504 C4.39880661,2.30538084 4.62629513,2.0837592 4.9043818,2.0837592 L17.4943281,2.0837592 C17.6459871,2.0837592 17.7976461,2.15763748 17.898865,2.28082512 C17.9999841,2.40401276 18.0253062,2.57633824 17.9746945,2.724086 L15.9269773,8.90633926 C15.8513239,9.07883627 15.6490577,9.22658843 15.4467734,9.22658843 L15.4466786,9.22652698 Z" id="Shape"></path>
        </g>
    </g>
</svg>