<?xml version="1.0" encoding="UTF-8"?>
<svg width="18px" height="13px" viewBox="0 0 18 13" version="1.1" xmlns="http://www.w3.org/2000/svg" xmlns:xlink="http://www.w3.org/1999/xlink">
    <title>Shape</title>
    <g id="Symbols" stroke="none" stroke-width="1" fill="none" fill-rule="evenodd">
        <g id="List" transform="translate(0.000000, -2.000000)" fill="#16255C" fill-rule="nonzero">
            <path d="M3.60003086,8.88759962 L3.60003086,8.11291442 C3.60003086,7.94256128 3.74065492,7.8039457 3.91409926,7.8039457 L17.6859316,7.8039457 C17.8573616,7.8039457 18,7.94223793 18,8.11291442 L18,8.88759962 C18,9.05795276 17.8593759,9.19656833 17.6859316,9.19656833 L3.91409926,9.19656833 C3.74266922,9.19656833 3.60003086,9.0582761 3.60003086,8.88759962 L3.60003086,8.88759962 Z M3.60003086,14.4590021 L3.60003086,13.6843169 C3.60003086,13.5139638 3.74065492,13.3753482 3.91409926,13.3753482 L17.6859316,13.3753482 C17.8573616,13.3753482 18,13.5136404 18,13.6843169 L18,14.4590021 C18,14.6293553 17.8593759,14.7682942 17.6859316,14.7682942 L3.91409926,14.7682942 C3.74266922,14.7682942 3.60003086,14.6296786 3.60003086,14.4590021 L3.60003086,14.4590021 Z M3.60003086,3.31603129 L3.60003086,2.54134609 C3.60003086,2.37099294 3.74065492,2.23205403 3.91409926,2.23205403 L17.6859316,2.23205403 C17.8573616,2.23205403 18,2.3706696 18,2.54134609 L18,3.31603129 C18,3.48638443 17.8593759,3.625 17.6859316,3.625 L3.91409926,3.625 C3.74266922,3.625 3.60003086,3.48670777 3.60003086,3.31603129 L3.60003086,3.31603129 Z M0,9.12190048 L0,7.87826534 C0,7.70500209 0.141961217,7.57156833 0.317077004,7.57156833 L1.60280231,7.57156833 C1.78192956,7.57156833 1.91987931,7.70888223 1.91987931,7.87826534 L1.91987931,9.12190048 C1.91987931,9.29516373 1.7779181,9.42859749 1.60280231,9.42859749 L0.317077004,9.42859749 C0.137949754,9.42859749 0,9.29128358 0,9.12190048 L0,9.12190048 Z M0,14.693303 L0,13.4496679 C0,13.2764046 0.141961217,13.1429708 0.317077004,13.1429708 L1.60280231,13.1429708 C1.78192956,13.1429708 1.91987931,13.2802847 1.91987931,13.4496679 L1.91987931,14.693303 C1.91987931,14.8665662 1.7779181,15 1.60280231,15 L0.317077004,15 C0.137949754,15 0,14.8626861 0,14.693303 L0,14.693303 Z M0,3.55033215 L0,2.30669701 C0,2.13343376 0.141961217,2 0.317077004,2 L1.60280231,2 C1.78192956,2 1.91987931,2.1373139 1.91987931,2.30669701 L1.91987931,3.55033215 C1.91987931,3.72359539 1.7779181,3.85702915 1.60280231,3.85702915 L0.317077004,3.85702915 C0.137949754,3.85702915 0,3.71971525 0,3.55033215 L0,3.55033215 Z" id="Shape"></path>
        </g>
    </g>
</svg>