<?xml version="1.0" encoding="UTF-8"?>
<svg width="16px" height="13px" viewBox="0 0 16 13" version="1.1" xmlns="http://www.w3.org/2000/svg" xmlns:xlink="http://www.w3.org/1999/xlink">
    <title>Icon/Search Copy 8</title>
    <g id="Page-1" stroke="none" stroke-width="1" fill="none" fill-rule="evenodd" opacity="0.800000012">
        <g id="Project-approve-Admin" transform="translate(-1106.000000, -182.000000)" fill="#7F7F78" fill-rule="nonzero">
            <g id="Group-11-Copy-2" transform="translate(1038.000000, 160.000000)">
                <g id="Group-13" transform="translate(68.000000, 21.000000)">
                    <g id="Icon/Search-Copy-8" transform="translate(8.000000, 7.500000) rotate(-360.000000) translate(-8.000000, -7.500000) translate(0.000000, 1.000000)">
                        <path d="M4.34285714,4.48275862 C4.72156669,4.48275862 5.02857143,4.78380853 5.02857143,5.15517241 C5.02857143,5.49558931 4.77060217,5.77692293 4.43590451,5.82144786 L4.34285714,5.82758621 L1.37142857,5.82758621 L1.37142857,11.6551724 L14.6285714,11.6551724 L14.6285714,5.82758621 L11.6571429,5.82758621 C11.3099924,5.82758621 11.023094,5.57462066 10.9776883,5.24641498 L10.9714286,5.15517241 C10.9714286,4.81475552 11.2293978,4.5334219 11.5640955,4.48889697 L11.6571429,4.48275862 L15.3142857,4.48275862 C15.6614361,4.48275862 15.9483346,4.73572417 15.9937402,5.06392985 L16,5.15517241 L16,12.3275862 C16,12.6680031 15.7420307,12.9493367 15.4073331,12.9938617 L15.3142857,13 L0.685714286,13 C0.338563872,13 0.0516654072,12.7470345 0.0062597632,12.4188288 L1.2246468e-16,12.3275862 L1.2246468e-16,5.15517241 C1.2246468e-16,4.81475552 0.257969263,4.5334219 0.592666919,4.48889697 L0.685714286,4.48275862 L4.34285714,4.48275862 Z M8.40796494,0.13183951 L8.48487322,0.19694544 L11.2277304,2.88660061 C11.4955185,3.14919453 11.4955185,3.5749434 11.2277304,3.83753732 C10.9842866,4.07625906 10.603337,4.09796104 10.3348922,3.90264325 L10.2579839,3.83753732 L8.685,2.295 L8.68571429,7.84482759 C8.68571429,8.21619147 8.37870954,8.51724138 8,8.51724138 C7.65284959,8.51724138 7.36595112,8.26427583 7.32054548,7.93607015 L7.31428571,7.84482759 L7.314,2.296 L5.74201608,3.83753732 C5.49857236,4.07625906 5.11762271,4.09796104 4.84917792,3.90264325 L4.77226964,3.83753732 C4.52882592,3.59881557 4.50669467,3.22525503 4.7058759,2.96201714 L4.77226964,2.88660061 L7.51512678,0.19694544 C7.75857049,-0.0417763055 8.13952015,-0.0634782824 8.40796494,0.13183951 Z" id="Combined-Shape"></path>
                    </g>
                </g>
            </g>
        </g>
    </g>
</svg>